<?xml version="1.0" standalone="no"?><!DOCTYPE svg PUBLIC "-//W3C//DTD SVG 1.1//EN" "http://www.w3.org/Graphics/SVG/1.1/DTD/svg11.dtd"><svg class="icon" width="200px" height="200.00px" viewBox="0 0 1024 1024" version="1.1" xmlns="http://www.w3.org/2000/svg"><path fill="#333333" d="M704 448l-128 0 0-128-64 0 0 128-128 0 0 64 128 0 0 128 64 0 0-128 128 0zM832 128l-576 0c-35.36 0-64 28.64-64 64l0 576c0 35.36 28.64 64 64 64l576 0c35.36 0 64-28.64 64-64l0-576c0-35.36-28.64-64-64-64zM832 736c0 17.664-14.336 32-32 32l-512 0c-17.664 0-32-14.336-32-32l0-512c0-17.664 14.336-32 32-32l512 0c17.664 0 32 14.336 32 32l0 512z" /></svg>